<svg width="105" height="71" viewBox="0 0 105 71" fill="none" xmlns="http://www.w3.org/2000/svg">
<path d="M1 30.8901C1.13939 30.797 1.27591 30.6298 1.42104 30.6203C3.70732 30.483 5.98929 30.8949 7.13027 33.9911C8.49974 37.7027 9.84047 41.4254 11.1941 45.1418C11.2559 45.3122 11.3148 45.4842 11.3838 45.6515C11.6008 46.1691 11.9572 46.5194 12.4846 46.5194C13.0364 46.5194 13.4258 46.1754 13.6327 45.612C14.4101 43.5022 15.1833 41.3891 15.9578 39.2776C16.6073 37.5055 17.2612 35.7364 17.9035 33.9611C18.7255 31.6887 20.3148 30.6708 22.4674 30.6061C24.0941 30.5572 24.0884 30.5761 23.492 32.1984C22.0723 36.0584 20.6539 39.9199 19.2414 43.7831C18.1076 46.884 15.4649 48.8566 12.4386 48.8503C9.49415 48.844 6.85868 46.8209 5.73781 43.7373C4.25338 39.6564 2.75459 35.5786 1.25435 31.5009C1.19543 31.3415 1.18394 31.13 1 31.048V30.8901Z" fill="#0F4B55"/>
<path d="M30.0273 23C30.4713 23.1846 30.9426 23.314 31.3536 23.5634C32.943 24.5307 33.0277 26.6359 31.5088 27.7263C30.3319 28.5722 29.0731 28.5864 27.8416 27.8684C27.0009 27.3792 26.5052 26.6043 26.5899 25.5013C26.6719 24.4408 27.2869 23.8174 28.0959 23.3803C28.3905 23.2194 28.7124 23.1247 29.0214 23C29.3562 23 29.6924 23 30.0273 23Z" fill="#0F4B55"/>
<path d="M72.662 39.9423C70.2995 39.9423 67.9357 39.9392 65.5732 39.9439C64.8504 39.9455 64.7455 40.1207 64.8547 40.8876C65.1867 43.2042 66.1179 45.079 68.1512 46.0511C70.6904 47.2646 74.1895 46.3983 75.4483 43.0638C75.5964 42.6708 75.8277 42.584 76.1712 42.5872C77.417 42.5983 78.6615 42.6109 79.9074 42.5825C80.4965 42.5698 80.5626 42.8097 80.3299 43.3305C79.5984 44.9622 78.512 46.2578 77.0449 47.0579C72.3502 49.6207 67.6224 49.7122 63.1548 46.5766C58.3983 43.2389 58.6109 35.62 63.4048 32.3139C65.1867 31.0846 67.1482 30.5323 69.2319 30.4328C71.7466 30.3129 74.1996 30.5812 76.4514 31.9462C78.9144 33.4391 80.235 35.7825 80.5756 38.8156C80.6862 39.7972 80.5813 39.9124 79.6789 39.9155C77.3394 39.9218 75 39.9171 72.662 39.9171V39.9376V39.9423ZM70.1803 38.3153C71.6848 38.3153 73.1908 38.3153 74.6954 38.3153C75.1135 38.3153 75.5101 38.2475 75.3894 37.6336C75.1063 36.1991 74.5732 34.9083 73.5271 33.9314C71.2135 31.7679 66.2242 32.0441 65.066 37.1712C64.8375 38.1828 64.9237 38.3138 65.8808 38.3153C67.3134 38.3185 68.7476 38.3153 70.1803 38.3153Z" fill="#0F4B55"/>
<path d="M93.5333 30.429C95.9805 30.3706 98.1878 30.8535 100.179 32.1791C102.75 33.8897 104.118 36.432 104.067 39.746C104.011 43.3314 102.407 45.9683 99.471 47.458C95.6572 49.3928 91.7313 49.4338 87.9031 47.5149C84.552 45.8358 82.9354 42.8532 83.2343 38.7928C83.5044 35.1127 85.4904 32.7788 88.488 31.4074C90.1348 30.6547 91.875 30.3422 93.5319 30.4306L93.5333 30.429ZM99.0299 39.6402C99.0758 38.736 98.9149 37.8602 98.7051 37.0001C98.0671 34.3868 96.2406 32.8009 93.7661 32.6762C91.4841 32.561 89.6117 33.9371 88.7481 36.4147C88.031 38.4725 88.0425 40.5682 88.6662 42.6433C89.8934 46.7306 94.7246 47.952 97.373 44.8511C98.6203 43.3913 98.9896 41.5734 99.0299 39.6418V39.6402Z" fill="#0F4B55"/>
<path d="M36.8761 30.6008C39.4813 30.5977 40.9801 31.7276 41.9329 34.3582C43.2621 38.0304 44.6158 41.69 45.9522 45.359C46.1778 45.9808 46.4796 46.5157 47.1535 46.5173C47.8145 46.5189 48.1494 46.036 48.3822 45.3969C49.7373 41.6537 51.1326 37.9263 52.4705 34.1752C53.5942 31.0269 55.8374 30.4651 58.2199 30.6198C58.8033 30.6576 58.5691 31.0995 58.4498 31.4262C57.5718 33.8327 56.6895 36.2361 55.8072 38.6411C55.1749 40.366 54.5498 42.0924 53.906 43.8125C52.7248 46.9655 50.1066 48.8781 47.0271 48.8545C44.2565 48.8324 41.5679 46.8598 40.5174 44.0255C39.0244 40.0014 37.5572 35.9663 36.08 31.9343C35.7552 31.0474 36.0201 30.6029 36.8746 30.6008H36.8761Z" fill="#0F4B55"/>
<path d="M27.1754 39.5858C27.1754 36.9062 27.2013 34.225 27.1596 31.5454C27.1481 30.7643 27.3838 30.5528 28.062 30.5876C29.1369 30.6428 30.2147 30.6191 31.291 30.5954C31.804 30.5844 32.0224 30.7785 32.021 31.3703C32.0095 36.862 32.008 42.3537 32.0238 47.847C32.0253 48.4119 31.8399 48.5761 31.3542 48.565C30.1816 48.5398 29.009 48.5271 27.8378 48.5698C27.276 48.5903 27.1625 48.3472 27.1668 47.7855C27.1883 45.0522 27.1768 42.3206 27.1768 39.5873L27.1754 39.5858Z" fill="#0F4B55"/>
</svg>
